<svg xmlns="http://www.w3.org/2000/svg" width="188" height="52" viewBox="0 0 188 52" fill="none"><g clip-path="url(#clip0_2998_8300)"><path d="M83.9436 16.9547H78.2258V12.7151H94.8969V16.9547H89.2084V31.6225H83.9436V16.9547Z" fill="#596063"></path><path d="M98.1631 29.9222L99.8912 25.9796C101.539 27.0859 103.881 27.8432 106.033 27.8432C108.185 27.8432 109.065 27.2233 109.065 26.3026C109.065 23.3029 98.4846 25.4933 98.4846 18.4694C98.4846 15.091 101.196 12.3364 106.727 12.3364C109.146 12.3364 111.645 12.9044 113.479 13.9847L111.857 17.957C110.074 16.9844 108.32 16.4981 106.698 16.4981C104.491 16.4981 103.695 17.2554 103.695 18.1984C103.695 21.0903 114.25 18.926 114.25 25.8979C114.25 29.1946 111.539 32.0049 106.007 32.0049C102.949 32.0049 99.9204 31.1659 98.1631 29.9259V29.9222Z" fill="#596063"></path><path d="M118.371 22.167C118.371 16.4127 122.704 12.3328 128.608 12.3328C132.039 12.3328 134.801 13.6024 136.609 15.9004L133.259 18.9817C132.09 17.5487 130.654 16.7654 128.871 16.7654C125.813 16.7654 123.687 18.926 123.687 22.167C123.687 25.4079 125.813 27.5686 128.871 27.5686C130.654 27.5686 132.09 26.7853 133.259 25.3523L136.609 28.4336C134.801 30.7316 132.035 32.0012 128.608 32.0012C122.708 32.0012 118.371 27.9213 118.371 22.167Z" fill="#596063"></path><path d="M140.248 22.167C140.248 16.4944 144.636 12.3328 150.591 12.3328C156.547 12.3328 160.935 16.4944 160.935 22.167C160.935 27.8396 156.547 32.0012 150.591 32.0012C144.636 32.0012 140.248 27.8396 140.248 22.167ZM155.619 22.167C155.619 18.9001 153.412 16.7654 150.595 16.7654C147.778 16.7654 145.571 18.9001 145.571 22.167C145.571 25.4339 147.778 27.5686 150.595 27.5686C153.412 27.5686 155.619 25.4339 155.619 22.167Z" fill="#596063"></path><path d="M183.159 31.6225L183.104 21.599L178.318 29.7589H175.98L171.219 21.87V31.6225H166.353V12.7114H170.686L177.226 23.626L183.605 12.7114H187.938L187.993 31.6225H183.155H183.159Z" fill="#596063"></path><path d="M73.1401 14.215C72.7748 13.6989 72.3948 13.1829 71.96 12.7226C71.5216 12.2585 71.0174 11.8836 70.5169 11.4938C69.6985 10.8626 68.7778 10.4431 67.8133 10.083C65.9244 9.38139 63.6811 9.37396 61.7521 9.91598C59.8705 10.4469 57.9962 11.5754 56.7431 13.1161C56.3119 13.6507 55.8699 14.2075 55.5301 14.809C55.1976 15.3955 54.9455 16.0303 54.7117 16.6578C54.3098 17.7344 54.149 18.9372 54.1417 20.0806V29.1278C54.1417 29.2726 54.1344 29.4137 54.1271 29.5584C54.0687 29.8369 53.9956 30.1116 53.9043 30.3826C53.78 30.6276 53.6412 30.8652 53.4914 31.0954C53.3124 31.2959 53.1261 31.4889 52.9251 31.6708C52.6986 31.823 52.4648 31.9641 52.2236 32.0903C51.9606 32.1831 51.6902 32.2574 51.4162 32.3168C51.1312 32.3353 50.8462 32.3353 50.5613 32.3168C50.2873 32.2574 50.0205 32.1831 49.7538 32.0903C49.5127 31.9641 49.2789 31.823 49.0524 31.6708C48.8551 31.4889 48.6651 31.2996 48.4861 31.0954C48.3363 30.8652 48.1974 30.6276 48.0732 30.3826C47.9819 30.1116 47.9088 29.8369 47.8503 29.5584C47.843 29.4137 47.8357 29.2726 47.8357 29.1278V10.2464C47.8357 10.0979 47.8248 9.94568 47.8065 9.79718C47.6713 7.99294 47.105 6.14415 46.0674 4.68145C45.7021 4.16543 45.3221 3.6494 44.8873 3.18906C44.4489 2.725 43.9447 2.35005 43.4442 1.96024C42.6258 1.32913 41.7051 0.909625 40.7406 0.549519C38.8517 -0.15213 36.6084 -0.159555 34.6794 0.38246C32.7978 0.913337 30.9199 2.04192 29.6704 3.58257C29.2392 4.11716 28.7972 4.67403 28.4574 5.27544C28.1249 5.86201 27.8728 6.49683 27.639 7.12423C27.3211 7.96695 27.1567 8.89506 27.0946 9.80461C27.0763 9.94568 27.069 10.0905 27.069 10.239V29.1278C27.069 29.2726 27.0617 29.4137 27.0544 29.5584C26.996 29.8369 26.9229 30.1116 26.8316 30.3826C26.7073 30.6276 26.5685 30.8652 26.4187 31.0954C26.2397 31.2959 26.0534 31.4889 25.8524 31.6708C25.6259 31.823 25.3921 31.9641 25.1509 32.0903C24.8879 32.1831 24.6175 32.2574 24.3435 32.3168C24.0585 32.3353 23.7736 32.3353 23.4886 32.3168C23.2146 32.2574 22.9478 32.1831 22.6811 32.0903C22.44 31.9641 22.2062 31.823 21.9797 31.6708C21.7787 31.4889 21.5924 31.2996 21.4134 31.0954C21.2636 30.8652 21.1247 30.6276 21.0005 30.3826C20.9092 30.1116 20.8361 29.8369 20.7776 29.5584C20.7703 29.4137 20.763 29.2726 20.763 29.1278V20.0806C20.7484 18.0462 20.1785 15.8744 18.9947 14.2075C18.6294 13.6915 18.2494 13.1755 17.8146 12.7152C17.3762 12.2511 16.872 11.8761 16.3715 11.4863C15.5531 10.8552 14.6324 10.4357 13.6679 10.0756C11.779 9.37396 9.53572 9.36654 7.60665 9.90855C5.72508 10.4394 3.85082 11.568 2.59766 13.1087C2.16654 13.6433 1.72446 14.2001 1.38468 14.8015C1.05221 15.3881 0.800116 16.0229 0.566289 16.6503C0.164401 17.7269 0.00364496 18.9298 -0.00366211 20.0732V28.8642C-0.00366211 29.8072 0.398227 30.7947 1.05586 31.4629C1.68427 32.1015 2.71092 32.5804 3.61334 32.5395C4.54864 32.4987 5.51683 32.1831 6.17081 31.4629C6.82114 30.7427 7.23034 29.8591 7.23034 28.8642V20.0732C7.23034 19.9284 7.23765 19.7873 7.24495 19.6425C7.30341 19.3641 7.37648 19.0894 7.46782 18.8184C7.59204 18.5734 7.73087 18.3358 7.88067 18.1056C8.05969 17.9051 8.24602 17.7121 8.44697 17.5302C8.67349 17.378 8.90731 17.2369 9.14845 17.1107C9.4115 17.0179 9.68186 16.9436 9.95588 16.8842C10.2409 16.8656 10.5258 16.8656 10.8108 16.8842C11.0848 16.9436 11.3515 17.0179 11.6182 17.1107C11.8594 17.2369 12.0932 17.378 12.3197 17.5302C12.517 17.7121 12.707 17.9014 12.886 18.1056C13.0358 18.3358 13.1746 18.5734 13.2989 18.8184C13.3902 19.0894 13.4633 19.3641 13.5217 19.6425C13.529 19.7873 13.5363 19.9284 13.5363 20.0732V29.1204C13.551 31.1548 14.1209 33.3266 15.3047 34.9934C15.67 35.5095 16.05 36.0255 16.4847 36.4858C16.9232 36.9499 17.4274 37.3248 17.9279 37.7146C18.7463 38.3458 19.667 38.7653 20.6315 39.1254C22.5204 39.827 24.7637 39.8344 26.6927 39.2924C28.5743 38.7616 30.4486 37.633 31.7017 36.0923C32.1328 35.5577 32.5749 35.0009 32.9147 34.3995C33.2472 33.8129 33.4993 33.1781 33.7331 32.5507C34.135 31.4741 34.2957 30.2712 34.303 29.1278V10.5545C34.303 10.4097 34.3103 10.2687 34.3177 10.1239C34.3761 9.84544 34.4492 9.57072 34.5405 9.29972C34.6647 9.05469 34.8036 8.8171 34.9534 8.58693C35.1324 8.38646 35.3187 8.19341 35.5197 8.0115C35.7462 7.85929 35.98 7.71822 36.2211 7.592C36.4842 7.49919 36.7546 7.42494 37.0286 7.36554C37.3136 7.34698 37.5985 7.34698 37.8835 7.36554C38.1575 7.42494 38.4242 7.49919 38.6909 7.592C38.9321 7.71822 39.1659 7.85929 39.3924 8.0115C39.5897 8.19341 39.7797 8.38274 39.9587 8.58693C40.1085 8.8171 40.2473 9.05469 40.3716 9.29972C40.4629 9.57072 40.536 9.84544 40.5944 10.1239C40.6017 10.2687 40.609 10.4097 40.609 10.5545V29.1352C40.6237 31.1696 41.1936 33.3414 42.3774 35.0046C42.7427 35.5206 43.1227 36.0366 43.5574 36.497C43.9959 36.961 44.5001 37.336 45.0006 37.7258C45.819 38.3569 46.7397 38.7764 47.7042 39.1365C49.5931 39.8382 51.8364 39.8456 53.7654 39.3036C55.647 38.7727 57.5213 37.6441 58.7744 36.1035C59.2055 35.5689 59.6476 35.012 59.9874 34.4106C60.3199 33.824 60.572 33.1892 60.8058 32.5618C61.2077 31.4852 61.3684 30.2824 61.3757 29.1389V20.0917C61.3757 19.947 61.383 19.8059 61.3904 19.6611C61.4488 19.3827 61.5219 19.108 61.6132 18.8369C61.7374 18.5919 61.8763 18.3543 62.0261 18.1242C62.2051 17.9237 62.3914 17.7306 62.5924 17.5487C62.8189 17.3965 63.0527 17.2555 63.2938 17.1292C63.5569 17.0364 63.8273 16.9622 64.1013 16.9028C64.3863 16.8842 64.6712 16.8842 64.9562 16.9028C65.2302 16.9622 65.4969 17.0364 65.7636 17.1292C66.0048 17.2555 66.2386 17.3965 66.4651 17.5487C66.6624 17.7306 66.8524 17.92 67.0314 18.1242C67.1812 18.3543 67.32 18.5919 67.4443 18.8369C67.5356 19.108 67.6087 19.3827 67.6671 19.6611C67.6744 19.8059 67.6817 19.947 67.6817 20.0917V28.8828C67.6817 29.8257 68.0836 30.8132 68.7413 31.4815C69.3697 32.12 70.3963 32.5989 71.2987 32.5581C72.234 32.5172 73.2022 32.2017 73.8562 31.4815C74.5065 30.7613 74.9157 29.8777 74.9157 28.8828V20.0917C74.9011 18.0573 74.3312 15.8856 73.1474 14.2187L73.1401 14.215Z" fill="url(#paint0_linear_2998_8300)"></path><path d="M0.471191 49.9842L0.792703 49.2937C1.24574 49.7094 2.02029 50.0102 2.80215 50.0102C3.85437 50.0102 4.3074 49.5944 4.3074 49.0561C4.3074 47.5451 0.617333 48.4992 0.617333 46.2012C0.617333 45.2471 1.34804 44.4341 2.94829 44.4341C3.66073 44.4341 4.4024 44.6271 4.90658 44.9835L4.61795 45.6926C4.08819 45.3473 3.48536 45.1877 2.94829 45.1877C1.91434 45.1877 1.46861 45.6295 1.46861 46.1678C1.46861 47.6787 5.15868 46.7321 5.15868 49.0078C5.15868 49.9545 4.4097 50.7675 2.80215 50.7675C1.8705 50.7675 0.957112 50.4482 0.471191 49.9879V49.9842Z" fill="#596063"></path><path d="M6.24023 47.5935C6.24023 45.7818 7.61396 44.4268 9.48457 44.4268C11.3552 44.4268 12.7143 45.7707 12.7143 47.5935C12.7143 49.4163 11.3406 50.7602 9.48457 50.7602C7.62858 50.7602 6.24023 49.4088 6.24023 47.5935ZM11.8448 47.5935C11.8448 46.2236 10.8364 45.2138 9.48823 45.2138C8.14007 45.2138 7.11343 46.2199 7.11343 47.5935C7.11343 48.9671 8.12181 49.9731 9.48823 49.9731C10.8547 49.9731 11.8448 48.9671 11.8448 47.5935Z" fill="#596063"></path><path d="M19.9958 50.6896L19.9885 46.179L17.7854 49.936H17.3835L15.1804 46.205V50.6896H14.3438V44.501H15.0562L17.5991 48.8519L20.1054 44.501H20.8178L20.8251 50.6896H19.9885H19.9958Z" fill="#596063"></path><path d="M22.4692 47.5935C22.4692 45.7818 23.843 44.4268 25.7136 44.4268C27.5842 44.4268 28.9433 45.7707 28.9433 47.5935C28.9433 49.4163 27.5696 50.7602 25.7136 50.7602C23.8576 50.7602 22.4692 49.4088 22.4692 47.5935ZM28.0701 47.5935C28.0701 46.2236 27.0617 45.2138 25.7136 45.2138C24.3654 45.2138 23.3388 46.2199 23.3388 47.5935C23.3388 48.9671 24.3472 49.9731 25.7136 49.9731C27.08 49.9731 28.0701 48.9671 28.0701 47.5935Z" fill="#596063"></path><path d="M30.021 49.9842L30.3425 49.2937C30.7955 49.7094 31.5701 50.0102 32.352 50.0102C33.4042 50.0102 33.8572 49.5944 33.8572 49.0561C33.8572 47.5451 30.1671 48.4992 30.1671 46.2012C30.1671 45.2471 30.8978 44.4341 32.4981 44.4341C33.2105 44.4341 33.9522 44.6271 34.4564 44.9835L34.1678 45.6926C33.638 45.3473 33.0352 45.1877 32.4981 45.1877C31.4641 45.1877 31.0184 45.6295 31.0184 46.1678C31.0184 47.6787 34.7085 46.7321 34.7085 49.0078C34.7085 49.9545 33.9595 50.7675 32.352 50.7675C31.4203 50.7675 30.5069 50.4482 30.021 49.9879V49.9842Z" fill="#596063"></path><path d="M38.373 49.9842L38.6946 49.2937C39.1476 49.7094 39.9221 50.0102 40.704 50.0102C41.7562 50.0102 42.2093 49.5944 42.2093 49.0561C42.2093 47.5451 38.5192 48.4992 38.5192 46.2012C38.5192 45.2471 39.2499 44.4341 40.8501 44.4341C41.5626 44.4341 42.3043 44.6271 42.8084 44.9835L42.5198 45.6926C41.99 45.3473 41.3872 45.1877 40.8501 45.1877C39.8162 45.1877 39.3705 45.6295 39.3705 46.1678C39.3705 47.6787 43.0605 46.7321 43.0605 49.0078C43.0605 49.9545 42.3116 50.7675 40.704 50.7675C39.7724 50.7675 38.859 50.4482 38.373 49.9879V49.9842Z" fill="#596063"></path><path d="M49.0594 49.9211V50.6896H44.6387V44.501H48.9389V45.2694H45.5119V47.1702H48.5662V47.9201H45.5119V49.9174H49.0631L49.0594 49.9211Z" fill="#596063"></path><path d="M54.9675 47.56H55.8041V49.9731C55.194 50.4966 54.35 50.7602 53.4987 50.7602C51.6281 50.7602 50.2544 49.4237 50.2544 47.5935C50.2544 45.7632 51.6281 44.4268 53.517 44.4268C54.4815 44.4268 55.2999 44.7535 55.8589 45.3809L55.3182 45.9303C54.814 45.4365 54.2404 45.2138 53.5499 45.2138C52.1396 45.2138 51.1203 46.2124 51.1203 47.5935C51.1203 48.9745 52.1396 49.9731 53.5389 49.9731C54.0541 49.9731 54.5327 49.858 54.9675 49.5759V47.56Z" fill="#596063"></path><path d="M57.7148 48.0204V44.501H58.5844V47.9832C58.5844 49.3531 59.2018 49.9731 60.2979 49.9731C61.394 49.9731 62.0224 49.3531 62.0224 47.9832V44.501H62.8663V48.0204C62.8663 49.8135 61.9018 50.7601 60.2906 50.7601C58.6794 50.7601 57.7148 49.8135 57.7148 48.0204Z" fill="#596063"></path><path d="M69.0261 50.6896L67.7108 48.7888C67.5902 48.7963 67.4587 48.8074 67.3272 48.8074H65.8219V50.6896H64.9524V44.501H67.3272C68.9092 44.501 69.8701 45.314 69.8701 46.6579C69.8701 47.612 69.3841 48.3025 68.5292 48.6106L69.9724 50.6896H69.0224H69.0261ZM69.0005 46.6579C69.0005 45.7743 68.4159 45.2694 67.3053 45.2694H65.8256V48.0538H67.3053C68.4196 48.0538 69.0005 47.5415 69.0005 46.6579Z" fill="#596063"></path><path d="M71.5835 44.501H72.453V50.6896H71.5835V44.501Z" fill="#596063"></path><path d="M74.5869 44.501H77.1553C79.1136 44.501 80.4435 45.7558 80.4435 47.5971C80.4435 49.4385 79.1136 50.6933 77.1553 50.6933H74.5869V44.5047V44.501ZM77.1005 49.9211C78.6058 49.9211 79.5703 48.9819 79.5703 47.5971C79.5703 46.2124 78.6058 45.2732 77.1005 45.2732H75.4565V49.9248H77.1005V49.9211Z" fill="#596063"></path><path d="M85.8725 49.1415H82.6355L81.9669 50.6896H81.0718L83.8302 44.501H84.6924L87.4582 50.6896H86.5448L85.8762 49.1415H85.8725ZM85.5693 48.4362L84.254 45.4031L82.9387 48.4362H85.5656H85.5693Z" fill="#596063"></path><path d="M88.6638 44.501H91.2323C93.1906 44.501 94.5204 45.7558 94.5204 47.5971C94.5204 49.4385 93.1906 50.6933 91.2323 50.6933H88.6638V44.5047V44.501ZM91.1811 49.9211C92.6864 49.9211 93.6509 48.9819 93.6509 47.5971C93.6509 46.2124 92.6864 45.2732 91.1811 45.2732H89.537V49.9248H91.1811V49.9211Z" fill="#596063"></path><path d="M96.636 50.1327C96.636 50.3109 96.5995 50.4408 96.4898 50.7675L96.0807 51.9964H95.5326L95.8541 50.6784C95.6349 50.6005 95.4888 50.3963 95.4888 50.129C95.4888 49.7763 95.7409 49.5276 96.0733 49.5276C96.4058 49.5276 96.6396 49.7837 96.6396 50.129L96.636 50.1327Z" fill="#596063"></path><path d="M100.352 49.9842L100.673 49.2937C101.126 49.7094 101.901 50.0102 102.683 50.0102C103.735 50.0102 104.188 49.5944 104.188 49.0561C104.188 47.5451 100.498 48.4992 100.498 46.2012C100.498 45.2471 101.228 44.4341 102.829 44.4341C103.541 44.4341 104.283 44.6271 104.787 44.9835L104.498 45.6926C103.969 45.3473 103.366 45.1877 102.829 45.1877C101.795 45.1877 101.349 45.6295 101.349 46.1678C101.349 47.6787 105.039 46.7321 105.039 49.0078C105.039 49.9545 104.29 50.7675 102.683 50.7675C101.751 50.7675 100.837 50.4482 100.352 49.9879V49.9842Z" fill="#596063"></path><path d="M106.121 47.5935C106.121 45.7818 107.494 44.4268 109.365 44.4268C111.236 44.4268 112.595 45.7707 112.595 47.5935C112.595 49.4163 111.221 50.7602 109.365 50.7602C107.509 50.7602 106.121 49.4088 106.121 47.5935ZM111.725 47.5935C111.725 46.2236 110.717 45.2138 109.369 45.2138C108.02 45.2138 106.994 46.2199 106.994 47.5935C106.994 48.9671 108.002 49.9731 109.369 49.9731C110.735 49.9731 111.725 48.9671 111.725 47.5935Z" fill="#596063"></path><path d="M119.876 50.6896L119.869 46.179L117.666 49.936H117.264L115.061 46.205V50.6896H114.224V44.501H114.937L117.479 48.8519L119.986 44.501H120.698L120.705 50.6896H119.869H119.876Z" fill="#596063"></path><path d="M122.35 47.5935C122.35 45.7818 123.723 44.4268 125.594 44.4268C127.465 44.4268 128.824 45.7707 128.824 47.5935C128.824 49.4163 127.45 50.7602 125.594 50.7602C123.738 50.7602 122.35 49.4088 122.35 47.5935ZM127.95 47.5935C127.95 46.2236 126.942 45.2138 125.594 45.2138C124.246 45.2138 123.219 46.2199 123.219 47.5935C123.219 48.9671 124.228 49.9731 125.594 49.9731C126.96 49.9731 127.95 48.9671 127.95 47.5935Z" fill="#596063"></path><path d="M129.901 49.9842L130.223 49.2937C130.676 49.7094 131.45 50.0102 132.232 50.0102C133.285 50.0102 133.738 49.5944 133.738 49.0561C133.738 47.5451 130.048 48.4992 130.048 46.2012C130.048 45.2471 130.778 44.4341 132.378 44.4341C133.091 44.4341 133.833 44.6271 134.337 44.9835L134.048 45.6926C133.518 45.3473 132.916 45.1877 132.378 45.1877C131.345 45.1877 130.899 45.6295 130.899 46.1678C130.899 47.6787 134.589 46.7321 134.589 49.0078C134.589 49.9545 133.84 50.7675 132.232 50.7675C131.301 50.7675 130.387 50.4482 129.901 49.9879V49.9842Z" fill="#596063"></path><path d="M138.253 49.9842L138.575 49.2937C139.028 49.7094 139.803 50.0102 140.584 50.0102C141.637 50.0102 142.09 49.5944 142.09 49.0561C142.09 47.5451 138.4 48.4992 138.4 46.2012C138.4 45.2471 139.13 44.4341 140.731 44.4341C141.443 44.4341 142.185 44.6271 142.689 44.9835L142.4 45.6926C141.87 45.3473 141.268 45.1877 140.731 45.1877C139.697 45.1877 139.251 45.6295 139.251 46.1678C139.251 47.6787 142.941 46.7321 142.941 49.0078C142.941 49.9545 142.192 50.7675 140.584 50.7675C139.653 50.7675 138.739 50.4482 138.253 49.9879V49.9842Z" fill="#596063"></path><path d="M144.022 47.5935C144.022 45.7818 145.396 44.4268 147.267 44.4268C149.137 44.4268 150.496 45.7707 150.496 47.5935C150.496 49.4163 149.123 50.7602 147.267 50.7602C145.411 50.7602 144.022 49.4088 144.022 47.5935ZM149.627 47.5935C149.627 46.2236 148.618 45.2138 147.27 45.2138C145.922 45.2138 144.895 46.2199 144.895 47.5935C144.895 48.9671 145.904 49.9731 147.27 49.9731C148.637 49.9731 149.627 48.9671 149.627 47.5935Z" fill="#596063"></path><path d="M152.133 44.501H153.003V49.9211H156.302V50.6896H152.133V44.501Z" fill="#596063"></path><path d="M157.449 48.0204V44.501H158.319V47.9832C158.319 49.3531 158.936 49.9731 160.032 49.9731C161.128 49.9731 161.756 49.3531 161.756 47.9832V44.501H162.6V48.0204C162.6 49.8135 161.636 50.7601 160.025 50.7601C158.414 50.7601 157.449 49.8135 157.449 48.0204Z" fill="#596063"></path><path d="M164.193 47.5935C164.193 45.7632 165.567 44.4268 167.423 44.4268C168.362 44.4268 169.18 44.7535 169.739 45.392L169.173 45.9489C168.702 45.444 168.128 45.2138 167.46 45.2138C166.086 45.2138 165.067 46.2199 165.067 47.5935C165.067 48.9671 166.086 49.9731 167.46 49.9731C168.128 49.9731 168.705 49.7355 169.173 49.2306L169.739 49.7875C169.184 50.4223 168.366 50.7602 167.416 50.7602C165.571 50.7602 164.197 49.4237 164.197 47.5935H164.193Z" fill="#596063"></path><path d="M171.285 44.501H172.154V50.6896H171.285V44.501Z" fill="#596063"></path><path d="M173.788 47.5934C173.788 45.7817 175.161 44.4267 177.032 44.4267C178.903 44.4267 180.262 45.7706 180.262 47.5934C180.262 49.4162 178.888 50.7601 177.032 50.7601C175.176 50.7601 173.788 49.4088 173.788 47.5934ZM179.392 47.5934C179.392 46.2235 178.384 45.2137 177.036 45.2137C175.687 45.2137 174.661 46.2198 174.661 47.5934C174.661 48.967 175.669 49.9731 177.036 49.9731C178.402 49.9731 179.392 48.967 179.392 47.5934ZM177.565 42.8452H178.629L177.167 43.9961H176.385L177.569 42.8452H177.565Z" fill="#596063"></path><path d="M187.138 44.501V50.6896H186.425L182.772 46.075V50.6896H181.902V44.501H182.615L186.268 49.1155V44.501H187.138Z" fill="#596063"></path></g><defs><linearGradient id="paint0_linear_2998_8300" x1="15.1147" y1="45.7558" x2="60.5082" y2="1.0824" gradientUnits="userSpaceOnUse"><stop stop-color="#3D80EF"></stop><stop offset="1" stop-color="#00E8B9"></stop></linearGradient><clipPath id="clip0_2998_8300"><rect width="188" height="52" fill="white"></rect></clipPath></defs></svg>